<?xml version="1.0" encoding="UTF-8"?>
<svg width="208px" height="458px" viewBox="0 0 208 458" version="1.1" xmlns="http://www.w3.org/2000/svg" xmlns:xlink="http://www.w3.org/1999/xlink">
    <!-- Generator: Sketch 52.5 (67469) - http://www.bohemiancoding.com/sketch -->
    <title>drink</title>
    <desc>Created with Sketch.</desc>
    <g id="Page-1" stroke="none" stroke-width="1" fill="none" fill-rule="evenodd">
        <g id="drink" transform="translate(0.000000, -1.000000)">
            <path d="M0,114.818256 C7.53910825,122.020149 27.3856992,125.621096 59.5397727,125.621096 C80.4683879,125.621096 113.970807,117.869351 147.608411,114.818256 C159.636521,113.727248 177.433717,113.727248 201,114.818256 L186.16423,420.936296 C185.13128,442.249942 167.549784,459 146.211123,459 L54.7888774,459 C33.4502157,459 15.8687195,442.249942 14.8357704,420.936296 L0,114.818256 Z" id="Rectangle" fill="#E8C46F"></path>
            <path d="M5.50317027,101 L20.0742748,420.684697 C20.9748797,440.443637 37.2564461,456 57.0359008,456 L145.964326,456 C165.74378,456 182.025347,440.443637 182.925952,420.684697 L197.497056,101 L5.50317027,101 Z" id="Rectangle" stroke="#222222"></path>
            <g id="Group-5" transform="translate(19.000000, 389.000000)">
                <g id="Group-4" transform="translate(27.951564, 35.165714)">
                    <ellipse id="Oval" fill="#544C45" cx="14.4031274" cy="14.2414414" rx="14.4031274" ry="14.2414414"></ellipse>
                    <ellipse id="Oval" stroke="#222222" cx="16.460717" cy="15.8690347" rx="14.4031274" ry="14.2414414"></ellipse>
                    <path d="M8.65484621,8.15426918 C11.7483248,7.77347787 13.165377,9.51334238 13.191734,7.8569138 C13.2180911,6.20048522 10.5406691,5.84649157 8.73721546,5.87283879 C6.93376184,5.89918601 5.02209613,6.95165332 4.99573906,8.60808191 C4.96938199,10.2645105 5.56136765,8.53506049 8.65484621,8.15426918 Z" id="Oval" fill="#D8D8D8" transform="translate(9.093420, 7.592511) rotate(-33.000000) translate(-9.093420, -7.592511) "></path>
                </g>
                <g id="Group-4-Copy-11" transform="translate(16.429062, 21.565611)">
                    <ellipse id="Oval" fill="#544C45" cx="14.4031274" cy="14.2414414" rx="14.4031274" ry="14.2414414"></ellipse>
                    <ellipse id="Oval" stroke="#222222" cx="16.460717" cy="15.8690347" rx="14.4031274" ry="14.2414414"></ellipse>
                    <path d="M8.65484621,8.15426918 C11.7483248,7.77347787 13.165377,9.51334238 13.191734,7.8569138 C13.2180911,6.20048522 10.5406691,5.84649157 8.73721546,5.87283879 C6.93376184,5.89918601 5.02209613,6.95165332 4.99573906,8.60808191 C4.96938199,10.2645105 5.56136765,8.53506049 8.65484621,8.15426918 Z" id="Oval" fill="#D8D8D8" transform="translate(9.093420, 7.592511) rotate(-33.000000) translate(-9.093420, -7.592511) "></path>
                </g>
                <g id="Group-4-Copy" transform="translate(47.292906, 36.620849)">
                    <ellipse id="Oval" fill="#544C45" cx="14.4031274" cy="14.2414414" rx="14.4031274" ry="14.2414414"></ellipse>
                    <ellipse id="Oval" stroke="#222222" cx="16.460717" cy="15.8690347" rx="14.4031274" ry="14.2414414"></ellipse>
                    <path d="M8.65484621,8.15426918 C11.7483248,7.77347787 13.165377,9.51334238 13.191734,7.8569138 C13.2180911,6.20048522 10.5406691,5.84649157 8.73721546,5.87283879 C6.93376184,5.89918601 5.02209613,6.95165332 4.99573906,8.60808191 C4.96938199,10.2645105 5.56136765,8.53506049 8.65484621,8.15426918 Z" id="Oval" fill="#D8D8D8" transform="translate(9.093420, 7.592511) rotate(-33.000000) translate(-9.093420, -7.592511) "></path>
                </g>
                <g id="Group-4-Copy-10" transform="translate(43.589245, 17.496628)">
                    <ellipse id="Oval" fill="#544C45" cx="14.4031274" cy="14.2414414" rx="14.4031274" ry="14.2414414"></ellipse>
                    <ellipse id="Oval" stroke="#222222" cx="16.460717" cy="15.8690347" rx="14.4031274" ry="14.2414414"></ellipse>
                    <path d="M8.65484621,8.15426918 C11.7483248,7.77347787 13.165377,9.51334238 13.191734,7.8569138 C13.2180911,6.20048522 10.5406691,5.84649157 8.73721546,5.87283879 C6.93376184,5.89918601 5.02209613,6.95165332 4.99573906,8.60808191 C4.96938199,10.2645105 5.56136765,8.53506049 8.65484621,8.15426918 Z" id="Oval" fill="#D8D8D8" transform="translate(9.093420, 7.592511) rotate(-33.000000) translate(-9.093420, -7.592511) "></path>
                </g>
                <g id="Group-4-Copy-3" transform="translate(70.749428, 21.565611)">
                    <ellipse id="Oval" fill="#544C45" cx="14.4031274" cy="14.2414414" rx="14.4031274" ry="14.2414414"></ellipse>
                    <ellipse id="Oval" stroke="#222222" cx="16.460717" cy="15.8690347" rx="14.4031274" ry="14.2414414"></ellipse>
                    <path d="M8.65484621,8.15426918 C11.7483248,7.77347787 13.165377,9.51334238 13.191734,7.8569138 C13.2180911,6.20048522 10.5406691,5.84649157 8.73721546,5.87283879 C6.93376184,5.89918601 5.02209613,6.95165332 4.99573906,8.60808191 C4.96938199,10.2645105 5.56136765,8.53506049 8.65484621,8.15426918 Z" id="Oval" fill="#D8D8D8" transform="translate(9.093420, 7.592511) rotate(-33.000000) translate(-9.093420, -7.592511) "></path>
                </g>
                <g id="Group-4-Copy-12" transform="translate(0.000000, 12.613848)">
                    <ellipse id="Oval" fill="#544C45" cx="14.4031274" cy="14.2414414" rx="14.4031274" ry="14.2414414"></ellipse>
                    <ellipse id="Oval" stroke="#222222" cx="16.460717" cy="15.8690347" rx="14.4031274" ry="14.2414414"></ellipse>
                    <path d="M8.65484621,8.15426918 C11.7483248,7.77347787 13.165377,9.51334238 13.191734,7.8569138 C13.2180911,6.20048522 10.5406691,5.84649157 8.73721546,5.87283879 C6.93376184,5.89918601 5.02209613,6.95165332 4.99573906,8.60808191 C4.96938199,10.2645105 5.56136765,8.53506049 8.65484621,8.15426918 Z" id="Oval" fill="#D8D8D8" transform="translate(9.093420, 7.592511) rotate(-33.000000) translate(-9.093420, -7.592511) "></path>
                </g>
                <g id="Group-4-Copy-4" transform="translate(132.408085, 17.496628)">
                    <ellipse id="Oval" fill="#544C45" cx="14.4031274" cy="14.2414414" rx="14.4031274" ry="14.2414414"></ellipse>
                    <ellipse id="Oval" stroke="#222222" cx="16.460717" cy="15.8690347" rx="14.4031274" ry="14.2414414"></ellipse>
                    <path d="M8.65484621,8.15426918 C11.7483248,7.77347787 13.165377,9.51334238 13.191734,7.8569138 C13.2180911,6.20048522 10.5406691,5.84649157 8.73721546,5.87283879 C6.93376184,5.89918601 5.02209613,6.95165332 4.99573906,8.60808191 C4.96938199,10.2645105 5.56136765,8.53506049 8.65484621,8.15426918 Z" id="Oval" fill="#D8D8D8" transform="translate(9.093420, 7.592511) rotate(-33.000000) translate(-9.093420, -7.592511) "></path>
                </g>
                <g id="Group-4-Copy-5" transform="translate(124.108696, 31.940077)">
                    <ellipse id="Oval" fill="#544C45" cx="14.4031274" cy="14.2414414" rx="14.4031274" ry="14.2414414"></ellipse>
                    <ellipse id="Oval" stroke="#222222" cx="16.460717" cy="15.8690347" rx="14.4031274" ry="14.2414414"></ellipse>
                    <path d="M8.65484621,8.15426918 C11.7483248,7.77347787 13.165377,9.51334238 13.191734,7.8569138 C13.2180911,6.20048522 10.5406691,5.84649157 8.73721546,5.87283879 C6.93376184,5.89918601 5.02209613,6.95165332 4.99573906,8.60808191 C4.96938199,10.2645105 5.56136765,8.53506049 8.65484621,8.15426918 Z" id="Oval" fill="#D8D8D8" transform="translate(9.093420, 7.592511) rotate(-33.000000) translate(-9.093420, -7.592511) "></path>
                </g>
                <g id="Group-4-Copy-8" transform="translate(101.613272, 35.724324)">
                    <ellipse id="Oval" fill="#544C45" cx="14.4031274" cy="14.2414414" rx="14.4031274" ry="14.2414414"></ellipse>
                    <ellipse id="Oval" stroke="#222222" cx="16.460717" cy="15.8690347" rx="14.4031274" ry="14.2414414"></ellipse>
                    <path d="M8.65484621,8.15426918 C11.7483248,7.77347787 13.165377,9.51334238 13.191734,7.8569138 C13.2180911,6.20048522 10.5406691,5.84649157 8.73721546,5.87283879 C6.93376184,5.89918601 5.02209613,6.95165332 4.99573906,8.60808191 C4.96938199,10.2645105 5.56136765,8.53506049 8.65484621,8.15426918 Z" id="Oval" fill="#D8D8D8" transform="translate(9.093420, 7.592511) rotate(-33.000000) translate(-9.093420, -7.592511) "></path>
                </g>
                <g id="Group-4-Copy-6" transform="translate(113.958810, 17.496628)">
                    <ellipse id="Oval" fill="#544C45" cx="14.4031274" cy="14.2414414" rx="14.4031274" ry="14.2414414"></ellipse>
                    <ellipse id="Oval" stroke="#222222" cx="16.460717" cy="15.8690347" rx="14.4031274" ry="14.2414414"></ellipse>
                    <path d="M8.65484621,8.15426918 C11.7483248,7.77347787 13.165377,9.51334238 13.191734,7.8569138 C13.2180911,6.20048522 10.5406691,5.84649157 8.73721546,5.87283879 C6.93376184,5.89918601 5.02209613,6.95165332 4.99573906,8.60808191 C4.96938199,10.2645105 5.56136765,8.53506049 8.65484621,8.15426918 Z" id="Oval" fill="#D8D8D8" transform="translate(9.093420, 7.592511) rotate(-33.000000) translate(-9.093420, -7.592511) "></path>
                </g>
                <g id="Group-4-Copy-13" transform="translate(129.596491, 0.000000)">
                    <ellipse id="Oval" fill="#544C45" cx="14.4031274" cy="14.2414414" rx="14.4031274" ry="14.2414414"></ellipse>
                    <ellipse id="Oval" stroke="#222222" cx="16.460717" cy="15.8690347" rx="14.4031274" ry="14.2414414"></ellipse>
                    <path d="M8.65484621,8.15426918 C11.7483248,7.77347787 13.165377,9.51334238 13.191734,7.8569138 C13.2180911,6.20048522 10.5406691,5.84649157 8.73721546,5.87283879 C6.93376184,5.89918601 5.02209613,6.95165332 4.99573906,8.60808191 C4.96938199,10.2645105 5.56136765,8.53506049 8.65484621,8.15426918 Z" id="Oval" fill="#D8D8D8" transform="translate(9.093420, 7.592511) rotate(-33.000000) translate(-9.093420, -7.592511) "></path>
                </g>
                <g id="Group-4-Copy-9" transform="translate(93.382914, 21.565611)">
                    <ellipse id="Oval" fill="#544C45" cx="14.4031274" cy="14.2414414" rx="14.4031274" ry="14.2414414"></ellipse>
                    <ellipse id="Oval" stroke="#222222" cx="16.460717" cy="15.8690347" rx="14.4031274" ry="14.2414414"></ellipse>
                    <path d="M8.65484621,8.15426918 C11.7483248,7.77347787 13.165377,9.51334238 13.191734,7.8569138 C13.2180911,6.20048522 10.5406691,5.84649157 8.73721546,5.87283879 C6.93376184,5.89918601 5.02209613,6.95165332 4.99573906,8.60808191 C4.96938199,10.2645105 5.56136765,8.53506049 8.65484621,8.15426918 Z" id="Oval" fill="#D8D8D8" transform="translate(9.093420, 7.592511) rotate(-33.000000) translate(-9.093420, -7.592511) "></path>
                </g>
                <g id="Group-4-Copy-14" transform="translate(78.156751, 6.510373)">
                    <ellipse id="Oval" fill="#544C45" cx="14.4031274" cy="14.2414414" rx="14.4031274" ry="14.2414414"></ellipse>
                    <ellipse id="Oval" stroke="#222222" cx="16.460717" cy="15.8690347" rx="14.4031274" ry="14.2414414"></ellipse>
                    <path d="M8.65484621,8.15426918 C11.7483248,7.77347787 13.165377,9.51334238 13.191734,7.8569138 C13.2180911,6.20048522 10.5406691,5.84649157 8.73721546,5.87283879 C6.93376184,5.89918601 5.02209613,6.95165332 4.99573906,8.60808191 C4.96938199,10.2645105 5.56136765,8.53506049 8.65484621,8.15426918 Z" id="Oval" fill="#D8D8D8" transform="translate(9.093420, 7.592511) rotate(-33.000000) translate(-9.093420, -7.592511) "></path>
                </g>
                <g id="Group-4-Copy-7" transform="translate(70.749428, 35.724324)">
                    <ellipse id="Oval" fill="#544C45" cx="14.4031274" cy="14.2414414" rx="14.4031274" ry="14.2414414"></ellipse>
                    <ellipse id="Oval" stroke="#222222" cx="16.460717" cy="15.8690347" rx="14.4031274" ry="14.2414414"></ellipse>
                    <path d="M8.65484621,8.15426918 C11.7483248,7.77347787 13.165377,9.51334238 13.191734,7.8569138 C13.2180911,6.20048522 10.5406691,5.84649157 8.73721546,5.87283879 C6.93376184,5.89918601 5.02209613,6.95165332 4.99573906,8.60808191 C4.96938199,10.2645105 5.56136765,8.53506049 8.65484621,8.15426918 Z" id="Oval" fill="#D8D8D8" transform="translate(9.093420, 7.592511) rotate(-33.000000) translate(-9.093420, -7.592511) "></path>
                </g>
                <g id="Group-4-Copy-2" transform="translate(6.982838, 31.492458)">
                    <ellipse id="Oval" fill="#544C45" cx="14.4031274" cy="14.2414414" rx="14.4031274" ry="14.2414414"></ellipse>
                    <ellipse id="Oval" stroke="#222222" cx="16.460717" cy="15.8690347" rx="14.4031274" ry="14.2414414"></ellipse>
                    <path d="M8.65484621,8.15426918 C11.7483248,7.77347787 13.165377,9.51334238 13.191734,7.8569138 C13.2180911,6.20048522 10.5406691,5.84649157 8.73721546,5.87283879 C6.93376184,5.89918601 5.02209613,6.95165332 4.99573906,8.60808191 C4.96938199,10.2645105 5.56136765,8.53506049 8.65484621,8.15426918 Z" id="Oval" fill="#D8D8D8" transform="translate(9.093420, 7.592511) rotate(-33.000000) translate(-9.093420, -7.592511) "></path>
                </g>
            </g>
            <g id="Group-3" transform="translate(20.000000, 0.000000)">
                <polygon id="Rectangle" fill="#000000" points="172.178155 5.16670826 187.336004 0.99099203 51.0836996 417.295515 35.0087453 420.654586"></polygon>
                <path d="M147.03673,2.46351154 L184.035874,2.46351154 L46.41428,420.666213 C39.4190691,420.255058 32.8363526,421.514073 26.6661305,424.443256 C20.4959085,427.372439 11.6071983,432.552095 0,439.982224 L147.03673,2.46351154 Z" id="Rectangle" fill="#FF7E7E"></path>
                <path d="M152.920177,5.72931379 L9.73667275,431.782465 C17.4874125,427.016167 23.7211607,423.512343 28.4600716,421.262644 C34.361649,418.460994 40.6228153,417.062884 47.2059807,417.071546 L184.261633,2.95578557 L152.920177,5.72931379 Z" id="Rectangle" stroke="#222222"></path>
            </g>
            <g id="strawboba" transform="translate(35.000000, 399.000000)">
                <ellipse id="Oval" fill="#544C45" cx="14.4666667" cy="14.6621622" rx="14.4666667" ry="14.6621622"></ellipse>
                <ellipse id="Oval" stroke="#222222" cx="16.5333333" cy="16.3378378" rx="14.4666667" ry="14.6621622"></ellipse>
                <path d="M8.69610002,8.40841627 C11.8309071,7.9985956 13.2523271,9.78010249 13.2916136,8.07598039 C13.3309001,6.37185829 10.6229087,6.02337132 8.79684958,6.06102715 C6.9707905,6.09868298 5.02736831,7.19254159 4.98808177,8.8966637 C4.94879523,10.6007858 5.56129292,8.81823695 8.69610002,8.40841627 Z" id="Oval" fill="#D8D8D8" transform="translate(9.139195, 7.839733) rotate(-33.000000) translate(-9.139195, -7.839733) "></path>
            </g>
            <path d="M51.5333333,415.337838 L188.5,2.95578557" id="strawline" fill-rule="nonzero"></path>
        </g>
    </g>
</svg>