<?xml version="1.0" encoding="UTF-8"?>
<svg width="489px" height="982px" viewBox="0 0 489 982" version="1.1" xmlns="http://www.w3.org/2000/svg" xmlns:xlink="http://www.w3.org/1999/xlink">
    <!-- Generator: Sketch 52.5 (67469) - http://www.bohemiancoding.com/sketch -->
    <title>big boba</title>
    <desc>Created with Sketch.</desc>
    <defs>
        <path d="M6.82121026e-13,2.55270595 C18.3414126,20.0969482 66.6249099,28.8690693 144.850492,28.8690693 C195.766376,28.8690693 277.272263,9.98535446 359.10703,2.55270595 C388.369447,-0.105055098 431.667104,-0.105055098 489,2.55270595 L450.261497,802.933739 C449.229864,824.24844 431.647918,841 410.308266,841 L78.6917338,841 C57.3520823,841 39.7701361,824.24844 38.738503,802.933739 L6.82121026e-13,2.55270595 Z" id="path-1"></path>
    </defs>
    <g id="web" stroke="none" stroke-width="1" fill="none" fill-rule="evenodd">
        <g id="V3-Landing-page-error" transform="translate(-797.000000, 0.000000)">
            <g id="big-boba" transform="translate(797.000000, -199.000000)">
                <g id="Group-5" transform="translate(0.000000, 340.000000)">
                    <mask id="mask-2" fill="white">
                        <use xlink:href="#path-1"></use>
                    </mask>
                    <use id="Mask" fill="#E8C46F" fill-rule="nonzero" xlink:href="#path-1"></use>
                    <g mask="url(#mask-2)">
                        <g transform="translate(44.000000, 668.000000)">
                            <g id="Group-4" transform="translate(69.000000, 96.000000)">
                                <circle id="Oval" fill="#544C45" fill-rule="nonzero" cx="35" cy="35" r="35"></circle>
                                <circle id="Oval" stroke="#222222" stroke-width="6" fill-rule="nonzero" cx="40" cy="39" r="35"></circle>
                                <path d="M21.0287174,20.1506134 C28.5723066,19.3112084 32.1022777,23.7147798 32.1022777,19.5726442 C32.1022777,15.4305086 25.5466855,14.4472551 21.1412747,14.4472551 C16.735864,14.4472551 12.105949,17.009857 12.105949,21.1519926 C12.105949,25.2941282 13.4851282,20.9900184 21.0287174,20.1506134 Z" id="Oval" fill-opacity="0.518653759" fill="#D8D8D8" fill-rule="nonzero" transform="translate(22.104113, 18.685809) rotate(-33.000000) translate(-22.104113, -18.685809) "></path>
                            </g>
                            <g id="Group-4-Copy-11" transform="translate(41.000000, 53.000000)">
                                <circle id="Oval" fill="#544C45" fill-rule="nonzero" cx="35" cy="35" r="35"></circle>
                                <circle id="Oval" stroke="#222222" stroke-width="6" fill-rule="nonzero" cx="40" cy="39" r="35"></circle>
                                <path d="M21.0287174,20.1506134 C28.5723066,19.3112084 32.1022777,23.7147798 32.1022777,19.5726442 C32.1022777,15.4305086 25.5466855,14.4472551 21.1412747,14.4472551 C16.735864,14.4472551 12.105949,17.009857 12.105949,21.1519926 C12.105949,25.2941282 13.4851282,20.9900184 21.0287174,20.1506134 Z" id="Oval" fill-opacity="0.518653759" fill="#D8D8D8" fill-rule="nonzero" transform="translate(22.104113, 18.685809) rotate(-33.000000) translate(-22.104113, -18.685809) "></path>
                            </g>
                            <g id="Group-4-Copy" transform="translate(116.000000, 90.000000)">
                                <circle id="Oval" fill="#544C45" fill-rule="nonzero" cx="35" cy="35" r="35"></circle>
                                <circle id="Oval" stroke="#222222" stroke-width="6" fill-rule="nonzero" cx="40" cy="39" r="35"></circle>
                                <path d="M21.0287174,20.1506134 C28.5723066,19.3112084 32.1022777,23.7147798 32.1022777,19.5726442 C32.1022777,15.4305086 25.5466855,14.4472551 21.1412747,14.4472551 C16.735864,14.4472551 12.105949,17.009857 12.105949,21.1519926 C12.105949,25.2941282 13.4851282,20.9900184 21.0287174,20.1506134 Z" id="Oval" fill-opacity="0.518653759" fill="#D8D8D8" fill-rule="nonzero" transform="translate(22.104113, 18.685809) rotate(-33.000000) translate(-22.104113, -18.685809) "></path>
                            </g>
                            <g id="Group-4-Copy-10" transform="translate(107.000000, 43.000000)">
                                <circle id="Oval" fill="#544C45" fill-rule="nonzero" cx="35" cy="35" r="35"></circle>
                                <circle id="Oval" stroke="#222222" stroke-width="6" fill-rule="nonzero" cx="40" cy="39" r="35"></circle>
                                <path d="M21.0287174,20.1506134 C28.5723066,19.3112084 32.1022777,23.7147798 32.1022777,19.5726442 C32.1022777,15.4305086 25.5466855,14.4472551 21.1412747,14.4472551 C16.735864,14.4472551 12.105949,17.009857 12.105949,21.1519926 C12.105949,25.2941282 13.4851282,20.9900184 21.0287174,20.1506134 Z" id="Oval" fill-opacity="0.518653759" fill="#D8D8D8" fill-rule="nonzero" transform="translate(22.104113, 18.685809) rotate(-33.000000) translate(-22.104113, -18.685809) "></path>
                            </g>
                            <g id="Group-4-Copy-3" transform="translate(173.000000, 53.000000)">
                                <circle id="Oval" fill="#544C45" fill-rule="nonzero" cx="35" cy="35" r="35"></circle>
                                <circle id="Oval" stroke="#222222" stroke-width="6" fill-rule="nonzero" cx="40" cy="39" r="35"></circle>
                                <path d="M21.0287174,20.1506134 C28.5723066,19.3112084 32.1022777,23.7147798 32.1022777,19.5726442 C32.1022777,15.4305086 25.5466855,14.4472551 21.1412747,14.4472551 C16.735864,14.4472551 12.105949,17.009857 12.105949,21.1519926 C12.105949,25.2941282 13.4851282,20.9900184 21.0287174,20.1506134 Z" id="Oval" fill-opacity="0.518653759" fill="#D8D8D8" fill-rule="nonzero" transform="translate(22.104113, 18.685809) rotate(-33.000000) translate(-22.104113, -18.685809) "></path>
                            </g>
                            <g id="Group-4-Copy-12" transform="translate(0.000000, 31.000000)">
                                <circle id="Oval" fill="#544C45" fill-rule="nonzero" cx="35" cy="35" r="35"></circle>
                                <circle id="Oval" stroke="#222222" stroke-width="6" fill-rule="nonzero" cx="40" cy="39" r="35"></circle>
                                <path d="M21.0287174,20.1506134 C28.5723066,19.3112084 32.1022777,23.7147798 32.1022777,19.5726442 C32.1022777,15.4305086 25.5466855,14.4472551 21.1412747,14.4472551 C16.735864,14.4472551 12.105949,17.009857 12.105949,21.1519926 C12.105949,25.2941282 13.4851282,20.9900184 21.0287174,20.1506134 Z" id="Oval" fill-opacity="0.518653759" fill="#D8D8D8" fill-rule="nonzero" transform="translate(22.104113, 18.685809) rotate(-33.000000) translate(-22.104113, -18.685809) "></path>
                            </g>
                            <g id="Group-4-Copy-4" transform="translate(329.000000, 43.000000)">
                                <circle id="Oval" fill="#544C45" fill-rule="nonzero" cx="35" cy="35" r="35"></circle>
                                <circle id="Oval" stroke="#222222" stroke-width="6" fill-rule="nonzero" cx="40" cy="39" r="35"></circle>
                                <path d="M21.0287174,20.1506134 C28.5723066,19.3112084 32.1022777,23.7147798 32.1022777,19.5726442 C32.1022777,15.4305086 25.5466855,14.4472551 21.1412747,14.4472551 C16.735864,14.4472551 12.105949,17.009857 12.105949,21.1519926 C12.105949,25.2941282 13.4851282,20.9900184 21.0287174,20.1506134 Z" id="Oval" fill-opacity="0.518653759" fill="#D8D8D8" fill-rule="nonzero" transform="translate(22.104113, 18.685809) rotate(-33.000000) translate(-22.104113, -18.685809) "></path>
                            </g>
                            <g id="Group-4-Copy-5" transform="translate(323.000000, 94.000000)">
                                <circle id="Oval" fill="#544C45" fill-rule="nonzero" cx="35" cy="35" r="35"></circle>
                                <circle id="Oval" stroke="#222222" stroke-width="6" fill-rule="nonzero" cx="40" cy="39" r="35"></circle>
                                <path d="M21.0287174,20.1506134 C28.5723066,19.3112084 32.1022777,23.7147798 32.1022777,19.5726442 C32.1022777,15.4305086 25.5466855,14.4472551 21.1412747,14.4472551 C16.735864,14.4472551 12.105949,17.009857 12.105949,21.1519926 C12.105949,25.2941282 13.4851282,20.9900184 21.0287174,20.1506134 Z" id="Oval" fill-opacity="0.518653759" fill="#D8D8D8" fill-rule="nonzero" transform="translate(22.104113, 18.685809) rotate(-33.000000) translate(-22.104113, -18.685809) "></path>
                            </g>
                            <g id="Group-4-Copy-8" transform="translate(248.000000, 90.000000)">
                                <circle id="Oval" fill="#544C45" fill-rule="nonzero" cx="35" cy="35" r="35"></circle>
                                <circle id="Oval" stroke="#222222" stroke-width="6" fill-rule="nonzero" cx="40" cy="39" r="35"></circle>
                                <path d="M21.0287174,20.1506134 C28.5723066,19.3112084 32.1022777,23.7147798 32.1022777,19.5726442 C32.1022777,15.4305086 25.5466855,14.4472551 21.1412747,14.4472551 C16.735864,14.4472551 12.105949,17.009857 12.105949,21.1519926 C12.105949,25.2941282 13.4851282,20.9900184 21.0287174,20.1506134 Z" id="Oval" fill-opacity="0.518653759" fill="#D8D8D8" fill-rule="nonzero" transform="translate(22.104113, 18.685809) rotate(-33.000000) translate(-22.104113, -18.685809) "></path>
                            </g>
                            <g id="Group-4-Copy-6" transform="translate(278.000000, 43.000000)">
                                <circle id="Oval" fill="#544C45" fill-rule="nonzero" cx="35" cy="35" r="35"></circle>
                                <circle id="Oval" stroke="#222222" stroke-width="6" fill-rule="nonzero" cx="40" cy="39" r="35"></circle>
                                <path d="M21.0287174,20.1506134 C28.5723066,19.3112084 32.1022777,23.7147798 32.1022777,19.5726442 C32.1022777,15.4305086 25.5466855,14.4472551 21.1412747,14.4472551 C16.735864,14.4472551 12.105949,17.009857 12.105949,21.1519926 C12.105949,25.2941282 13.4851282,20.9900184 21.0287174,20.1506134 Z" id="Oval" fill-opacity="0.518653759" fill="#D8D8D8" fill-rule="nonzero" transform="translate(22.104113, 18.685809) rotate(-33.000000) translate(-22.104113, -18.685809) "></path>
                            </g>
                            <g id="Group-4-Copy-13" transform="translate(316.000000, 0.000000)">
                                <circle id="Oval" fill="#544C45" fill-rule="nonzero" cx="35" cy="35" r="35"></circle>
                                <circle id="Oval" stroke="#222222" stroke-width="6" fill-rule="nonzero" cx="40" cy="39" r="35"></circle>
                                <path d="M21.0287174,20.1506134 C28.5723066,19.3112084 32.1022777,23.7147798 32.1022777,19.5726442 C32.1022777,15.4305086 25.5466855,14.4472551 21.1412747,14.4472551 C16.735864,14.4472551 12.105949,17.009857 12.105949,21.1519926 C12.105949,25.2941282 13.4851282,20.9900184 21.0287174,20.1506134 Z" id="Oval" fill-opacity="0.518653759" fill="#D8D8D8" fill-rule="nonzero" transform="translate(22.104113, 18.685809) rotate(-33.000000) translate(-22.104113, -18.685809) "></path>
                            </g>
                            <g id="Group-4-Copy-9" transform="translate(228.000000, 53.000000)">
                                <circle id="Oval" fill="#544C45" fill-rule="nonzero" cx="35" cy="35" r="35"></circle>
                                <circle id="Oval" stroke="#222222" stroke-width="6" fill-rule="nonzero" cx="40" cy="39" r="35"></circle>
                                <path d="M21.0287174,20.1506134 C28.5723066,19.3112084 32.1022777,23.7147798 32.1022777,19.5726442 C32.1022777,15.4305086 25.5466855,14.4472551 21.1412747,14.4472551 C16.735864,14.4472551 12.105949,17.009857 12.105949,21.1519926 C12.105949,25.2941282 13.4851282,20.9900184 21.0287174,20.1506134 Z" id="Oval" fill-opacity="0.518653759" fill="#D8D8D8" fill-rule="nonzero" transform="translate(22.104113, 18.685809) rotate(-33.000000) translate(-22.104113, -18.685809) "></path>
                            </g>
                            <g id="Group-4-Copy-14" transform="translate(191.000000, 16.000000)">
                                <circle id="Oval" fill="#544C45" fill-rule="nonzero" cx="35" cy="35" r="35"></circle>
                                <circle id="Oval" stroke="#222222" stroke-width="6" fill-rule="nonzero" cx="40" cy="39" r="35"></circle>
                                <path d="M21.0287174,20.1506134 C28.5723066,19.3112084 32.1022777,23.7147798 32.1022777,19.5726442 C32.1022777,15.4305086 25.5466855,14.4472551 21.1412747,14.4472551 C16.735864,14.4472551 12.105949,17.009857 12.105949,21.1519926 C12.105949,25.2941282 13.4851282,20.9900184 21.0287174,20.1506134 Z" id="Oval" fill-opacity="0.518653759" fill="#D8D8D8" fill-rule="nonzero" transform="translate(22.104113, 18.685809) rotate(-33.000000) translate(-22.104113, -18.685809) "></path>
                            </g>
                            <g id="Group-4-Copy-7" transform="translate(173.000000, 90.000000)">
                                <circle id="Oval" fill="#544C45" fill-rule="nonzero" cx="35" cy="35" r="35"></circle>
                                <circle id="Oval" stroke="#222222" stroke-width="6" fill-rule="nonzero" cx="40" cy="39" r="35"></circle>
                                <path d="M21.0287174,20.1506134 C28.5723066,19.3112084 32.1022777,23.7147798 32.1022777,19.5726442 C32.1022777,15.4305086 25.5466855,14.4472551 21.1412747,14.4472551 C16.735864,14.4472551 12.105949,17.009857 12.105949,21.1519926 C12.105949,25.2941282 13.4851282,20.9900184 21.0287174,20.1506134 Z" id="Oval" fill-opacity="0.518653759" fill="#D8D8D8" fill-rule="nonzero" transform="translate(22.104113, 18.685809) rotate(-33.000000) translate(-22.104113, -18.685809) "></path>
                            </g>
                            <g id="Group-4-Copy-2" transform="translate(5.000000, 95.000000)">
                                <circle id="Oval" fill="#544C45" fill-rule="nonzero" cx="35" cy="35" r="35"></circle>
                                <circle id="Oval" stroke="#222222" stroke-width="6" fill-rule="nonzero" cx="40" cy="39" r="35"></circle>
                                <path d="M21.0287174,20.1506134 C28.5723066,19.3112084 32.1022777,23.7147798 32.1022777,19.5726442 C32.1022777,15.4305086 25.5466855,14.4472551 21.1412747,14.4472551 C16.735864,14.4472551 12.105949,17.009857 12.105949,21.1519926 C12.105949,25.2941282 13.4851282,20.9900184 21.0287174,20.1506134 Z" id="Oval" fill-opacity="0.518653759" fill="#D8D8D8" fill-rule="nonzero" transform="translate(22.104113, 18.685809) rotate(-33.000000) translate(-22.104113, -18.685809) "></path>
                            </g>
                        </g>
                    </g>
                </g>
                <g id="Group-4-Copy-13" transform="translate(147.000000, 856.000000)" fill-rule="nonzero">
                    <circle id="Oval" fill="#544C45" cx="35" cy="35" r="35"></circle>
                    <circle id="Oval" stroke="#222222" stroke-width="6" cx="40" cy="39" r="35"></circle>
                    <path d="M21.0287174,20.1506134 C28.5723066,19.3112084 32.1022777,23.7147798 32.1022777,19.5726442 C32.1022777,15.4305086 25.5466855,14.4472551 21.1412747,14.4472551 C16.735864,14.4472551 12.105949,17.009857 12.105949,21.1519926 C12.105949,25.2941282 13.4851282,20.9900184 21.0287174,20.1506134 Z" id="Oval" fill-opacity="0.518653759" fill="#D8D8D8" transform="translate(22.104113, 18.685809) rotate(-33.000000) translate(-22.104113, -18.685809) "></path>
                </g>
                <g id="Group-3" transform="translate(49.000000, 0.000000)" fill-rule="nonzero">
                    <polygon id="Rectangle" fill-opacity="0.283429574" fill="#000000" points="438.451682 17.6077305 478.195874 0.417452053 124.029423 1079.55126 85 1087.75476"></polygon>
                    <path d="M357,66.4512658 L473.029423,11.0459341 L112.692236,1087.78315 C95.7081107,1086.77903 79.725507,1089.85379 64.7444253,1097.00742 C49.7633435,1104.16105 28.1818684,1116.81078 0,1134.95659 L357,66.4512658 Z" id="Rectangle" fill-opacity="0.626075634" fill="#FF7E7E"></path>
                    <path d="M367.848822,68.9235449 L14.4574451,1126.62821 C38.7059958,1111.24212 57.6194082,1100.30529 71.2362587,1093.8031 C85.9618197,1086.77148 101.636644,1083.54137 118.212906,1084.11718 L475.091802,17.7138367 L367.848822,68.9235449 Z" id="Rectangle" stroke="#222222" stroke-width="7"></path>
                </g>
                <path d="M10.1396234,305 L48.2593954,1142.68199 C49.1586015,1162.44204 65.440642,1178 85.2211447,1178 L410.778855,1178 C430.559358,1178 446.841398,1162.44204 447.740605,1142.68199 L485.860377,305 L10.1396234,305 Z" id="Rectangle" stroke="#222222" stroke-width="6" fill-opacity="0.0970901268" fill="#FFFFFF" fill-rule="nonzero"></path>
            </g>
        </g>
    </g>
</svg>